<svg width="1280" height="832" viewBox="0 0 1280 832" fill="none" xmlns="http://www.w3.org/2000/svg">
<g clip-path="url(#clip0_1338_153)">
<rect width="1280" height="832" fill="white"/>
<rect x="-114" y="-138" width="1440" height="1024" fill="#09132C"/>
<rect width="1280" height="832" fill="black" fill-opacity="0.72"/>
<g opacity="0.83" filter="url(#filter0_f_1338_153)">
<ellipse cx="-88.7894" cy="524" rx="91.2106" ry="91" fill="#543D5D"/>
</g>
<g opacity="0.83" filter="url(#filter1_f_1338_153)">
<ellipse cx="1306.73" cy="703.5" rx="101.735" ry="101.5" fill="#4E4B3D"/>
</g>
<g opacity="0.83" filter="url(#filter2_f_1338_153)">
<ellipse cx="312.735" cy="275.5" rx="101.735" ry="101.5" fill="#3D3F4E"/>
</g>
<g opacity="0.69" filter="url(#filter3_f_1338_153)">
<ellipse cx="927.146" cy="261" rx="63.1458" ry="63" fill="#353465"/>
</g>
<g filter="url(#filter4_f_1338_153)">
<ellipse cx="638.986" cy="324" rx="76.1759" ry="76" fill="#453838"/>
</g>
<g opacity="0.131">
<path d="M140.599 129.879C131.434 129.879 122.263 130.92 113.341 132.974C104.528 135.002 95.929 138.025 87.7833 141.957C79.6375 145.89 71.9257 150.741 64.8621 156.377C57.7113 162.083 51.2017 168.611 45.5143 175.782L-80.8251 335.057C-89.3946 345.861 -95.999 357.917 -100.455 370.891C-104.796 383.533 -106.998 396.736 -106.998 410.131C-106.998 423.527 -104.796 436.729 -100.455 449.372C-95.999 462.346 -89.3946 474.402 -80.8251 485.206L45.5141 644.481C51.2016 651.651 57.7112 658.18 64.862 663.885C71.9256 669.521 79.6374 674.373 87.7831 678.305C95.9288 682.238 104.528 685.26 113.341 687.289C122.263 689.343 131.434 690.384 140.599 690.384H468.468C477.633 690.384 486.804 689.343 495.725 687.289C504.539 685.26 513.138 682.238 521.283 678.305C529.429 674.373 537.141 669.521 544.204 663.885C551.355 658.18 557.865 651.651 563.552 644.481L689.891 485.206C698.461 474.402 705.065 462.346 709.521 449.372C713.863 436.729 716.064 423.527 716.064 410.131C716.064 396.736 713.863 383.533 709.521 370.891C705.065 357.917 698.461 345.861 689.891 335.057L563.552 175.782C557.865 168.611 551.355 162.083 544.204 156.377C537.141 150.741 529.429 145.89 521.283 141.957C513.138 138.025 504.539 135.002 495.725 132.974C486.804 130.92 477.633 129.879 468.468 129.879H140.599ZM140.599 128.879H468.468C505.834 128.879 541.149 145.928 564.338 175.161L690.677 334.437C725.863 378.795 725.863 441.468 690.677 485.826L564.338 645.101C541.149 674.335 505.834 691.384 468.468 691.384H140.599C103.232 691.384 67.9169 674.335 44.7284 645.101L-81.6109 485.826C-116.796 441.468 -116.796 378.795 -81.6109 334.437L44.7285 175.161C67.917 145.928 103.232 128.879 140.599 128.879Z" fill="white"/>
</g>
<g opacity="0.131">
<path d="M804.808 142.526C795.643 142.526 786.472 143.567 777.55 145.621C768.737 147.649 760.138 150.672 751.992 154.604C743.846 158.537 736.135 163.388 729.071 169.025C721.92 174.73 715.411 181.258 709.723 188.429L583.384 347.704C574.814 358.508 568.21 370.564 563.754 383.538C559.413 396.18 557.211 409.383 557.211 422.778C557.211 436.174 559.413 449.377 563.754 462.019C568.21 474.993 574.814 487.049 583.384 497.853L709.723 657.128C715.411 664.298 721.92 670.827 729.071 676.532C736.135 682.168 743.846 687.02 751.992 690.952C760.138 694.885 768.737 697.907 777.55 699.936C786.472 701.99 795.643 703.031 804.808 703.031H1132.68C1141.84 703.031 1151.01 701.99 1159.93 699.936C1168.75 697.907 1177.35 694.885 1185.49 690.952C1193.64 687.02 1201.35 682.168 1208.41 676.532C1215.56 670.827 1222.07 664.298 1227.76 657.128L1354.1 497.853C1362.67 487.049 1369.27 474.993 1373.73 462.019C1378.07 449.377 1380.27 436.174 1380.27 422.778C1380.27 409.383 1378.07 396.18 1373.73 383.538C1369.27 370.564 1362.67 358.508 1354.1 347.704L1227.76 188.429C1222.07 181.258 1215.56 174.73 1208.41 169.025C1201.35 163.388 1193.64 158.537 1185.49 154.604C1177.35 150.672 1168.75 147.649 1159.93 145.621C1151.01 143.567 1141.84 142.526 1132.68 142.526H804.808ZM804.808 141.526H1132.68C1170.04 141.526 1205.36 158.575 1228.55 187.808L1354.89 347.084C1390.07 391.442 1390.07 454.115 1354.89 498.473L1228.55 657.748C1205.36 686.982 1170.04 704.031 1132.68 704.031H804.808C767.441 704.031 732.126 686.982 708.937 657.748L582.598 498.473C547.413 454.115 547.413 391.442 582.598 347.084L708.937 187.808C732.126 158.575 767.441 141.526 804.808 141.526Z" fill="white"/>
</g>
<g opacity="0.131">
<path d="M1133.53 53.9998C1124.37 53.9998 1115.19 55.0412 1106.27 57.0949C1097.46 59.1235 1088.86 62.1462 1080.72 66.0785C1072.57 70.0109 1064.86 74.8626 1057.79 80.4986C1050.64 86.2041 1044.13 92.7325 1038.45 99.9028L912.107 259.178C903.538 269.982 896.933 282.038 892.477 295.012C888.136 307.654 885.934 320.857 885.934 334.253C885.934 347.648 888.136 360.851 892.477 373.493C896.933 386.467 903.538 398.523 912.107 409.327L1038.45 568.602C1044.13 575.772 1050.64 582.301 1057.79 588.006C1064.86 593.642 1072.57 598.494 1080.72 602.426C1088.86 606.359 1097.46 609.381 1106.27 611.41C1115.19 613.464 1124.37 614.505 1133.53 614.505H1461.4C1470.56 614.505 1479.74 613.464 1488.66 611.41C1497.47 609.381 1506.07 606.359 1514.22 602.426C1522.36 598.494 1530.07 593.642 1537.14 588.006C1544.29 582.301 1550.8 575.772 1556.48 568.602L1682.82 409.327C1691.39 398.523 1698 386.467 1702.45 373.493C1706.79 360.851 1709 347.648 1709 334.253C1709 320.857 1706.79 307.654 1702.45 295.012C1698 282.038 1691.39 269.982 1682.82 259.178L1556.48 99.9028C1550.8 92.7325 1544.29 86.2041 1537.14 80.4986C1530.07 74.8626 1522.36 70.0109 1514.22 66.0785C1506.07 62.1462 1497.47 59.1235 1488.66 57.0949C1479.74 55.0412 1470.57 53.9998 1461.4 53.9998H1133.53ZM1133.53 53H1461.4C1498.77 53 1534.08 70.0487 1557.27 99.2823L1683.61 258.558C1718.79 302.916 1718.79 365.589 1683.61 409.947L1557.27 569.223C1534.08 598.456 1498.77 615.505 1461.4 615.505H1133.53C1096.16 615.505 1060.85 598.456 1037.66 569.223L911.321 409.947C876.136 365.589 876.136 302.916 911.321 258.558L1037.66 99.2823C1060.85 70.0487 1096.16 53 1133.53 53Z" fill="white"/>
</g>
<g style="mix-blend-mode:luminosity">
<path d="M368.335 688.554H321.012V692.769H368.335V688.554Z" fill="url(#paint0_linear_1338_153)"/>
<path d="M986.3 496.537L955.882 460.37L952.646 463.079L983.064 499.246L986.3 496.537Z" fill="url(#paint1_linear_1338_153)"/>
<path d="M1300.35 273.195L1269.93 237.028L1266.7 239.737L1297.12 275.905L1300.35 273.195Z" fill="url(#paint2_linear_1338_153)"/>
<path d="M548.892 158.647L578.043 195.851L581.372 193.254L552.222 156.05L548.892 158.647Z" fill="url(#paint3_linear_1338_153)"/>
</g>
</g>
<defs>
<filter id="filter0_f_1338_153" x="-280" y="333" width="382.421" height="382" filterUnits="userSpaceOnUse" color-interpolation-filters="sRGB">
<feFlood flood-opacity="0" result="BackgroundImageFix"/>
<feBlend mode="normal" in="SourceGraphic" in2="BackgroundImageFix" result="shape"/>
<feGaussianBlur stdDeviation="50" result="effect1_foregroundBlur_1338_153"/>
</filter>
<filter id="filter1_f_1338_153" x="1105" y="502" width="403.47" height="403" filterUnits="userSpaceOnUse" color-interpolation-filters="sRGB">
<feFlood flood-opacity="0" result="BackgroundImageFix"/>
<feBlend mode="normal" in="SourceGraphic" in2="BackgroundImageFix" result="shape"/>
<feGaussianBlur stdDeviation="50" result="effect1_foregroundBlur_1338_153"/>
</filter>
<filter id="filter2_f_1338_153" x="111" y="74" width="403.47" height="403" filterUnits="userSpaceOnUse" color-interpolation-filters="sRGB">
<feFlood flood-opacity="0" result="BackgroundImageFix"/>
<feBlend mode="normal" in="SourceGraphic" in2="BackgroundImageFix" result="shape"/>
<feGaussianBlur stdDeviation="50" result="effect1_foregroundBlur_1338_153"/>
</filter>
<filter id="filter3_f_1338_153" x="764" y="98" width="326.292" height="326" filterUnits="userSpaceOnUse" color-interpolation-filters="sRGB">
<feFlood flood-opacity="0" result="BackgroundImageFix"/>
<feBlend mode="normal" in="SourceGraphic" in2="BackgroundImageFix" result="shape"/>
<feGaussianBlur stdDeviation="50" result="effect1_foregroundBlur_1338_153"/>
</filter>
<filter id="filter4_f_1338_153" x="462.811" y="148" width="352.352" height="352" filterUnits="userSpaceOnUse" color-interpolation-filters="sRGB">
<feFlood flood-opacity="0" result="BackgroundImageFix"/>
<feBlend mode="normal" in="SourceGraphic" in2="BackgroundImageFix" result="shape"/>
<feGaussianBlur stdDeviation="50" result="effect1_foregroundBlur_1338_153"/>
</filter>
<linearGradient id="paint0_linear_1338_153" x1="366.158" y1="690.662" x2="321.012" y2="690.662" gradientUnits="userSpaceOnUse">
<stop stop-color="#268AFF"/>
<stop offset="1" stop-color="#134580" stop-opacity="0"/>
</linearGradient>
<linearGradient id="paint1_linear_1338_153" x1="955.663" y1="463.388" x2="984.603" y2="497.958" gradientUnits="userSpaceOnUse">
<stop stop-color="#FF2626"/>
<stop offset="1" stop-color="#134580" stop-opacity="0"/>
</linearGradient>
<linearGradient id="paint2_linear_1338_153" x1="1269.71" y1="240.046" x2="1298.65" y2="274.616" gradientUnits="userSpaceOnUse">
<stop stop-color="#26FF71"/>
<stop offset="1" stop-color="#134580" stop-opacity="0"/>
</linearGradient>
<linearGradient id="paint3_linear_1338_153" x1="578.367" y1="192.841" x2="550.637" y2="157.286" gradientUnits="userSpaceOnUse">
<stop stop-color="#C526FF"/>
<stop offset="1" stop-color="#134580" stop-opacity="0"/>
</linearGradient>
<clipPath id="clip0_1338_153">
<rect width="1280" height="832" fill="white"/>
</clipPath>
</defs>
</svg>
