<svg width="50" height="51" viewBox="0 0 50 51" fill="none" xmlns="http://www.w3.org/2000/svg">
<rect y="0.5" width="50" height="50" rx="2" fill="#EBF1FB"/>
<path d="M25 15C22.9233 15 20.8932 15.6158 19.1665 16.7696C17.4398 17.9233 16.094 19.5632 15.2993 21.4818C14.5045 23.4004 14.2966 25.5116 14.7018 27.5484C15.1069 29.5852 16.1069 31.4562 17.5754 32.9246C19.0438 34.3931 20.9148 35.3931 22.9516 35.7982C24.9884 36.2034 27.0996 35.9955 29.0182 35.2007C30.9368 34.406 32.5767 33.0602 33.7304 31.3335C34.8842 29.6068 35.5 27.5767 35.5 25.5C35.5 22.7152 34.3938 20.0445 32.4246 18.0754C30.4555 16.1062 27.7848 15 25 15ZM25 34.5C23.22 34.5 21.4799 33.9722 19.9999 32.9832C18.5198 31.9943 17.3663 30.5887 16.6851 28.9442C16.0039 27.2996 15.8257 25.49 16.1729 23.7442C16.5202 21.9984 17.3774 20.3947 18.636 19.136C19.8947 17.8774 21.4984 17.0202 23.2442 16.6729C24.99 16.3257 26.7996 16.5039 28.4442 17.1851C30.0887 17.8663 31.4943 19.0198 32.4832 20.4999C33.4722 21.9799 34 23.72 34 25.5C34 27.8869 33.0518 30.1761 31.364 31.864C29.6761 33.5518 27.387 34.5 25 34.5Z" fill="#144EE3"/>
<path d="M25 32.25C25.6213 32.25 26.125 31.7463 26.125 31.125C26.125 30.5037 25.6213 30 25 30C24.3787 30 23.875 30.5037 23.875 31.125C23.875 31.7463 24.3787 32.25 25 32.25Z" fill="#144EE3"/>
<path d="M25.75 19.5H24.625C24.1815 19.499 23.7422 19.5856 23.3323 19.7549C22.9224 19.9242 22.5499 20.1727 22.2363 20.4863C21.9227 20.7999 21.6742 21.1724 21.5049 21.5823C21.3356 21.9922 21.249 22.4315 21.25 22.875V23.25H22.75V22.875C22.75 22.3777 22.9476 21.9008 23.2992 21.5492C23.6508 21.1975 24.1277 21 24.625 21H25.75C26.2473 21 26.7242 21.1975 27.0758 21.5492C27.4275 21.9008 27.625 22.3777 27.625 22.875C27.625 23.3723 27.4275 23.8492 27.0758 24.2008C26.7242 24.5525 26.2473 24.75 25.75 24.75H24.25V28.125H25.75V26.25C26.6451 26.25 27.5036 25.8944 28.1365 25.2615C28.7694 24.6286 29.125 23.7701 29.125 22.875C29.125 21.9799 28.7694 21.1215 28.1365 20.4885C27.5036 19.8556 26.6451 19.5 25.75 19.5Z" fill="#144EE3"/>
</svg>
