<svg width="40" height="38" viewBox="0 0 40 38" fill="none" xmlns="http://www.w3.org/2000/svg">
<path d="M30 26V16C30 15.4696 29.7893 14.9609 29.4142 14.5858C29.0391 14.2107 28.5304 14 28 14H21.236C20.8645 14 20.5004 13.8965 20.1844 13.7012C19.8684 13.5058 19.6131 13.2263 19.447 12.894L18.553 11.106C18.3869 10.7735 18.1314 10.4939 17.8152 10.2986C17.499 10.1032 17.1347 9.99983 16.763 10H12C11.4696 10 10.9609 10.2107 10.5858 10.5858C10.2107 10.9609 10 11.4696 10 12V26C10 26.5304 10.2107 27.0391 10.5858 27.4142C10.9609 27.7893 11.4696 28 12 28H28C28.5304 28 29.0391 27.7893 29.4142 27.4142C29.7893 27.0391 30 26.5304 30 26Z" stroke="black" stroke-width="2" stroke-linecap="round" stroke-linejoin="round"/>
<path d="M20 18V21M20 21V24M20 21H23M20 21H17" stroke="black" stroke-width="2" stroke-linecap="round"/>
</svg>
