<svg width="24" height="24" viewBox="0 0 24 24" fill="none" xmlns="http://www.w3.org/2000/svg">
<path d="M3.85714 0C3.09938 0 2.37266 0.30102 1.83684 0.836838C1.30102 1.37266 1 2.09938 1 2.85714V20C1 20.7578 1.30102 21.4845 1.83684 22.0203C2.37266 22.5561 3.09938 22.8571 3.85714 22.8571H12.2114C11.7215 22.3471 11.3066 21.7699 10.9794 21.1429H3.85714C3.55404 21.1429 3.26335 21.0225 3.04902 20.8081C2.83469 20.5938 2.71429 20.3031 2.71429 20H10.5006C10.3213 19.4438 10.2085 18.8684 10.1646 18.2857H2.71429V2.85714C2.71429 2.55404 2.83469 2.26335 3.04902 2.04902C3.26335 1.83469 3.55404 1.71429 3.85714 1.71429H17C17.3031 1.71429 17.5938 1.83469 17.8081 2.04902C18.0225 2.26335 18.1429 2.55404 18.1429 2.85714V10.3074C18.7371 10.3531 19.3109 10.4674 19.8571 10.6434V2.85714C19.8571 2.09938 19.5561 1.37266 19.0203 0.836838C18.4845 0.30102 17.7578 0 17 0H3.85714ZM23.8571 17.7143C23.8571 16.0472 23.1949 14.4484 22.0161 13.2696C20.8373 12.0908 19.2385 11.4286 17.5714 11.4286C15.9044 11.4286 14.3056 12.0908 13.1268 13.2696C11.948 14.4484 11.2857 16.0472 11.2857 17.7143C11.2857 19.3814 11.948 20.9802 13.1268 22.159C14.3056 23.3378 15.9044 24 17.5714 24C19.2385 24 20.8373 23.3378 22.0161 22.159C23.1949 20.9802 23.8571 19.3814 23.8571 17.7143ZM16.9017 14.968L20.1086 17.0709C20.2079 17.1346 20.2895 17.2227 20.3454 17.3266C20.4014 17.4306 20.43 17.5471 20.4286 17.6651C20.4287 17.784 20.4005 17.9011 20.3463 18.0069C20.2951 18.1115 20.217 18.2007 20.12 18.2651L16.912 20.4537C16.8562 20.4913 16.7954 20.5209 16.7314 20.5417C16.5829 20.5891 16.422 20.5798 16.28 20.5154C16.1981 20.4771 16.1235 20.4249 16.0594 20.3611C15.9975 20.2937 15.9473 20.2165 15.9109 20.1326C15.8752 20.0467 15.8569 19.9547 15.8571 19.8617V15.5669C15.8566 15.4293 15.8959 15.2946 15.9703 15.179C16.0448 15.0634 16.1511 14.9718 16.2766 14.9154C16.3762 14.8687 16.4863 14.8489 16.596 14.8579C16.7057 14.867 16.811 14.9045 16.9017 14.9669V14.968ZM4.42857 4.57143C4.42857 4.26832 4.54898 3.97763 4.76331 3.76331C4.97763 3.54898 5.26832 3.42857 5.57143 3.42857H14.7143C15.0174 3.42857 15.3081 3.54898 15.5224 3.76331C15.7367 3.97763 15.8571 4.26832 15.8571 4.57143V6.85714C15.8571 7.16025 15.7367 7.45094 15.5224 7.66527C15.3081 7.87959 15.0174 8 14.7143 8H5.57143C5.26832 8 4.97763 7.87959 4.76331 7.66527C4.54898 7.45094 4.42857 7.16025 4.42857 6.85714V4.57143ZM6.14286 6.28571H14.1429V5.14286H6.14286V6.28571Z" fill="white"/>
</svg>
