<svg width="50" height="51" viewBox="0 0 50 51" fill="none" xmlns="http://www.w3.org/2000/svg">
<rect y="0.5" width="50" height="50" rx="2" fill="#EBF1FB"/>
<g clip-path="url(#clip0_1298_695)">
<path d="M23.5369 14.404L19.6019 25.54L24.3999 25.577L20.6519 36.595V36.597L30.9959 21.89H25.9739L30.8469 14.403H27.0229L23.5369 14.404ZM19.9029 18.41C19.7485 18.4101 19.6004 18.4712 19.4909 18.58L13.1549 24.785C13.0549 24.9069 13.0002 25.0598 13.0002 25.2175C13.0002 25.3752 13.0549 25.5281 13.1549 25.65L19.6029 32.046C19.7169 32.1459 19.8633 32.201 20.0149 32.201C20.1665 32.201 20.3129 32.1459 20.4269 32.046C20.5356 31.9282 20.5959 31.7738 20.5959 31.6135C20.5959 31.4532 20.5356 31.2988 20.4269 31.181L14.9909 25.651C14.8829 25.5329 14.823 25.3786 14.823 25.2185C14.823 25.0584 14.8829 24.9041 14.9909 24.786L20.3149 19.442C20.3767 19.3881 20.4262 19.3216 20.4601 19.247C20.494 19.1724 20.5115 19.0914 20.5115 19.0095C20.5115 18.9276 20.494 18.8466 20.4601 18.772C20.4262 18.6974 20.3767 18.6309 20.3149 18.577C20.2052 18.4686 20.0571 18.4079 19.9029 18.408V18.41ZM30.0959 18.41C29.9415 18.4101 29.7934 18.4712 29.6839 18.58C29.6221 18.6337 29.5724 18.7001 29.5384 18.7746C29.5044 18.8491 29.4868 18.9301 29.4868 19.012C29.4868 19.0939 29.5044 19.1749 29.5384 19.2494C29.5724 19.3239 29.6221 19.3903 29.6839 19.444L35.1189 24.787C35.2274 24.9051 35.2876 25.0596 35.2876 25.22C35.2876 25.3804 35.2274 25.5349 35.1189 25.653L29.5709 31.183C29.4627 31.301 29.4027 31.4554 29.4027 31.6155C29.4027 31.7756 29.4627 31.93 29.5709 32.048C29.6849 32.1479 29.8313 32.203 29.9829 32.203C30.1345 32.203 30.2809 32.1479 30.3949 32.048L36.8449 25.652C36.9453 25.5302 37.0002 25.3773 37.0002 25.2195C37.0002 25.0617 36.9453 24.9088 36.8449 24.787L30.5079 18.579C30.3982 18.4706 30.2502 18.4098 30.0959 18.41Z" fill="#144EE3"/>
</g>
<defs>
<clipPath id="clip0_1298_695">
<rect width="24" height="24" fill="white" transform="translate(13 13.5)"/>
</clipPath>
</defs>
</svg>
