<svg width="28" height="28" viewBox="0 0 28 28" fill="none" xmlns="http://www.w3.org/2000/svg">
<path d="M27.9418 12.173C27.8055 11.8689 27.4565 11.6667 27.0663 11.6667H15.7964L22.297 1.134C22.5014 0.802667 22.396 0.397444 22.0441 0.167222C21.8742 0.0552222 21.6698 0 21.4664 0C21.2489 0 21.0314 0.0637778 20.8569 0.189L13.9997 5.124L0.323712 14.9668C0.0287805 15.1791 -0.0776186 15.5221 0.0586471 15.8262C0.194913 16.1303 0.543044 16.3333 0.933174 16.3333H12.2031L5.70247 26.866C5.49808 27.1973 5.60354 27.6026 5.95541 27.8328C6.12527 27.9448 6.32967 28 6.53313 28C6.7506 28 6.96806 27.9362 7.1426 27.811L13.9997 22.876L27.6758 13.0332C27.9717 12.8209 28.0771 12.4779 27.9418 12.173Z" fill="white"/>
</svg>
